<svg xmlns="http://www.w3.org/2000/svg" xmlns:xlink="http://www.w3.org/1999/xlink" version="1.1" x="0px" y="0px" viewBox="0 0 100 125" enable-background="new 0 0 100 100" xml:space="preserve"><g><path fill="#000000" d="M50,6.506c-17.358,0-31.507,14.209-31.507,31.642c0,9.978,4.632,18.862,11.833,24.664v28.306   c0,0.841,0.502,1.654,1.228,2.074c0.726,0.393,1.675,0.364,2.4-0.056L50,82.878l16.046,10.258c0.726,0.448,1.675,0.477,2.429,0.084   c0.726-0.421,1.228-1.262,1.228-2.103V62.783c7.172-5.802,11.805-14.658,11.805-24.636C81.507,20.715,67.386,6.506,50,6.506   L50,6.506z M50,11.271c14.818,0,26.763,11.995,26.763,26.877c0,14.883-11.944,26.878-26.763,26.878   c-14.791,0-26.763-11.995-26.763-26.878C23.237,23.266,35.209,11.271,50,11.271L50,11.271z M49.749,14.438   c-0.809,0.084-1.535,0.588-1.87,1.289l-5.777,11.687l-12.921,1.85c-0.865,0.112-1.646,0.757-1.897,1.598   c-0.279,0.841-0.056,1.822,0.586,2.438l9.349,9.025L35.014,55.16c-0.223,1.261,0.782,2.606,2.065,2.746   c0.474,0.057,0.949-0.056,1.367-0.28L50,51.601l11.554,6.025c0.781,0.421,1.785,0.337,2.483-0.168   c0.697-0.504,1.088-1.429,0.949-2.298l-2.205-12.836l9.349-9.025c0.614-0.616,0.865-1.597,0.586-2.438s-1.032-1.485-1.926-1.598   l-12.921-1.85l-5.748-11.687C51.702,14.886,50.697,14.325,49.749,14.438L49.749,14.438z M50,22.145l4.186,8.464   c0.363,0.673,1.061,1.177,1.814,1.261l9.377,1.374l-6.782,6.586c-0.558,0.533-0.837,1.317-0.726,2.074l1.646,9.333l-8.428-4.4   c-0.669-0.365-1.507-0.365-2.176,0l-8.428,4.4l1.619-9.333c0.14-0.729-0.139-1.542-0.669-2.074l-6.81-6.586L44,31.87   c0.753-0.084,1.451-0.588,1.814-1.261L50,22.145L50,22.145z M35.042,65.979C39.507,68.416,44.614,69.79,50,69.79   c5.414,0,10.521-1.374,14.958-3.812v20.823l-13.702-8.744c-0.754-0.505-1.786-0.505-2.54,0l-13.675,8.744V65.979L35.042,65.979z"/></g><text x="0" y="115" fill="#000000" font-size="5px" font-weight="bold" font-family="'Helvetica Neue', Helvetica, Arial-Unicode, Arial, Sans-serif">Created by romzicon</text><text x="0" y="120" fill="#000000" font-size="5px" font-weight="bold" font-family="'Helvetica Neue', Helvetica, Arial-Unicode, Arial, Sans-serif">from the Noun Project</text></svg>